<?xml version="1.0" encoding="UTF-8" standalone="no"?>
<!DOCTYPE svg PUBLIC "-//W3C//DTD SVG 1.1//EN" "http://www.w3.org/Graphics/SVG/1.1/DTD/svg11.dtd">
<svg width="100%" height="100%" viewBox="0 0 588 588" version="1.1" xmlns="http://www.w3.org/2000/svg" xmlns:xlink="http://www.w3.org/1999/xlink" xml:space="preserve" xmlns:serif="http://www.serif.com/" style="fill-rule:evenodd;clip-rule:evenodd;stroke-linejoin:round;stroke-miterlimit:2;">
    <g transform="matrix(1,0,0,1,-1982,-1500)">
        <g id="LOGO">
            <g transform="matrix(0.890909,0,0,0.890909,868.364,30)">
                <circle cx="1580" cy="1980" r="330" style="fill:url(#_Radial1);"/>
            </g>
            <g transform="matrix(1,0,0,1,-51.5,-90.5)">
                <g transform="matrix(0.999246,0.0388267,-0.0388267,0.999246,64.8795,-89.1433)">
                    <text x="2327.5px" y="1625.8px" style="font-family:'IBMPlexMono-Bold', 'IBM Plex Mono';font-weight:700;font-size:34px;">T</text>
                </g>
                <g transform="matrix(0.992845,0.119406,-0.119406,0.992845,211.021,-268.717)">
                    <text x="2347.9px" y="1626.57px" style="font-family:'IBMPlexMono-Bold', 'IBM Plex Mono';font-weight:700;font-size:34px;">r</text>
                </g>
                <g transform="matrix(0.980086,0.198575,-0.198575,0.980086,370.627,-437.818)">
                    <text x="2368.16px" y="1628.94px" style="font-family:'IBMPlexMono-Bold', 'IBM Plex Mono';font-weight:700;font-size:34px;">i</text>
                </g>
                <g transform="matrix(0.936267,0.35129,-0.35129,0.936267,729.05,-741.427)">
                    <text x="2407.85px" y="1638.5px" style="font-family:'IBMPlexMono-Bold', 'IBM Plex Mono';font-weight:700;font-size:34px;">R</text>
                </g>
                <g transform="matrix(0.906879,0.421392,-0.421392,0.906879,919.459,-869.455)">
                    <text x="2426.95px" y="1645.64px" style="font-family:'IBMPlexMono-Bold', 'IBM Plex Mono';font-weight:700;font-size:34px;">e</text>
                </g>
                <g transform="matrix(0.870632,0.491935,-0.491935,0.870632,1130.14,-989.005)">
                    <text x="2445.47px" y="1654.24px" style="font-family:'IBMPlexMono-Bold', 'IBM Plex Mono';font-weight:700;font-size:34px;">c</text>
                </g>
                <g transform="matrix(0.829266,0.558854,-0.558854,0.829266,1350.65,-1092.45)">
                    <text x="2463.25px" y="1664.28px" style="font-family:'IBMPlexMono-Bold', 'IBM Plex Mono';font-weight:700;font-size:34px;">o</text>
                </g>
                <g transform="matrix(0.781328,0.624121,-0.624121,0.781328,1588.18,-1181.52)">
                    <text x="2480.2px" y="1675.68px" style="font-family:'IBMPlexMono-Bold', 'IBM Plex Mono';font-weight:700;font-size:34px;">r</text>
                </g>
                <g transform="matrix(0.732679,0.680574,-0.680574,0.732679,1816.33,-1247.45)">
                    <text x="2496.12px" y="1688.38px" style="font-family:'IBMPlexMono-Bold', 'IBM Plex Mono';font-weight:700;font-size:34px;">d</text>
                </g>
                <g transform="matrix(0.67702,0.735965,-0.735965,0.67702,2063.85,-1298.24)">
                    <text x="2511.06px" y="1702.29px" style="font-family:'IBMPlexMono-Bold', 'IBM Plex Mono';font-weight:700;font-size:34px;">s</text>
                </g>
                <g transform="matrix(0.552614,0.833437,-0.833437,0.552614,2579.92,-1339.31)">
                    <text x="2537.46px" y="1733.41px" style="font-family:'IBMPlexMono-Light', 'IBM Plex Mono';font-weight:300;font-size:34px;">|</text>
                </g>
                <g transform="matrix(0.414634,0.909988,-0.909988,0.414634,3106.81,-1293.26)">
                    <text x="2558.63px" y="1768.24px" style="font-family:'IBMPlexMono-Light', 'IBM Plex Mono';font-weight:300;font-size:34px;">e</text>
                </g>
                <g transform="matrix(0.341176,0.939999,-0.939999,0.341176,3370.92,-1235.86)">
                    <text x="2567.11px" y="1786.86px" style="font-family:'IBMPlexMono-Light', 'IBM Plex Mono';font-weight:300;font-size:34px;">s</text>
                </g>
                <g transform="matrix(0.26783,0.963466,-0.963466,0.26783,3624.65,-1157.69)">
                    <text x="2574.03px" y="1806px" style="font-family:'IBMPlexMono-Light', 'IBM Plex Mono';font-weight:300;font-size:34px;">t</text>
                </g>
                <g transform="matrix(0.187998,0.982169,-0.982169,0.187998,3887.66,-1051.03)">
                    <text x="2579.47px" y="1825.67px" style="font-family:'IBMPlexMono-Light', 'IBM Plex Mono';font-weight:300;font-size:34px;">.</text>
                </g>
                <g transform="matrix(0.0311065,0.999516,-0.999516,0.0311065,4370.27,-776.301)">
                    <text x="2585.55px" y="1866.05px" style="font-family:'IBMPlexMono-Light', 'IBM Plex Mono';font-weight:300;font-size:34px;">2</text>
                </g>
                <g transform="matrix(-0.0463449,0.998925,-0.998925,-0.0463449,4590.49,-609.515)">
                    <text x="2586.19px" y="1886.47px" style="font-family:'IBMPlexMono-Light', 'IBM Plex Mono';font-weight:300;font-size:34px;">0</text>
                </g>
                <g transform="matrix(-0.125864,0.992047,-0.992047,-0.125864,4802.35,-417.829)">
                    <text x="2585.26px" y="1906.86px" style="font-family:'IBMPlexMono-Light', 'IBM Plex Mono';font-weight:300;font-size:34px;">1</text>
                </g>
                <g transform="matrix(-0.20222,0.97934,-0.97934,-0.20222,4992.24,-212.579)">
                    <text x="2582.7px" y="1927.07px" style="font-family:'IBMPlexMono-Light', 'IBM Plex Mono';font-weight:300;font-size:34px;">7</text>
                </g>
                <g transform="matrix(-0.355249,0.934772,-0.934772,-0.355249,5325.25,260.302)">
                    <text x="2572.86px" y="1966.68px" style="font-family:'IBMPlexMono-Light', 'IBM Plex Mono';font-weight:300;font-size:34px;">|</text>
                </g>
                <g transform="matrix(-0.498991,0.866607,-0.866607,-0.498991,5569.58,788.407)">
                    <text x="2556.89px" y="2004.17px" style="font-family:'IBMPlexMono-Light', 'IBM Plex Mono';font-weight:300;font-size:34px;">a</text>
                </g>
                <g transform="matrix(-0.62979,0.776765,-0.776765,-0.62979,5715.45,1353.45)">
                    <text x="2535.19px" y="2038.73px" style="font-family:'IBMPlexMono-Light', 'IBM Plex Mono';font-weight:300;font-size:34px;">r</text>
                </g>
                <g transform="matrix(-0.687094,0.726569,-0.726569,-0.687094,5748.24,1633.68)">
                    <text x="2522.34px" y="2054.62px" style="font-family:'IBMPlexMono-Light', 'IBM Plex Mono';font-weight:300;font-size:34px;">e</text>
                </g>
                <g transform="matrix(-0.741986,0.670416,-0.670416,-0.741986,5756.86,1923.31)">
                    <text x="2508.33px" y="2069.44px" style="font-family:'IBMPlexMono-Light', 'IBM Plex Mono';font-weight:300;font-size:34px;">c</text>
                </g>
                <g transform="matrix(-0.792046,0.610461,-0.610461,-0.792046,5739.56,2211.08)">
                    <text x="2493.18px" y="2083.13px" style="font-family:'IBMPlexMono-Light', 'IBM Plex Mono';font-weight:300;font-size:34px;">o</text>
                </g>
                <g transform="matrix(-0.838794,0.544449,-0.544449,-0.838794,5695.72,2504.76)">
                    <text x="2477.04px" y="2095.6px" style="font-family:'IBMPlexMono-Light', 'IBM Plex Mono';font-weight:300;font-size:34px;">r</text>
                </g>
                <g transform="matrix(-0.876794,0.480866,-0.480866,-0.876794,5629.77,2771.02)">
                    <text x="2459.89px" y="2106.73px" style="font-family:'IBMPlexMono-Light', 'IBM Plex Mono';font-weight:300;font-size:34px;">d</text>
                </g>
                <g transform="matrix(-0.942602,0.333919,-0.333919,-0.942602,5417.13,3318.51)">
                    <text x="2423.35px" y="2124.84px" style="font-family:'IBMPlexMono-Light', 'IBM Plex Mono';font-weight:300;font-size:34px;">l</text>
                </g>
                <g transform="matrix(-0.966377,0.25713,-0.25713,-0.966377,5275.56,3573.46)">
                    <text x="2404.14px" y="2131.65px" style="font-family:'IBMPlexMono-Light', 'IBM Plex Mono';font-weight:300;font-size:34px;">a</text>
                </g>
                <g transform="matrix(-0.984036,0.177968,-0.177968,-0.984036,5111.08,3815.41)">
                    <text x="2384.42px" y="2136.94px" style="font-family:'IBMPlexMono-Light', 'IBM Plex Mono';font-weight:300;font-size:34px;">b</text>
                </g>
                <g transform="matrix(-0.994769,0.102147,-0.102147,-0.994769,4934.95,4028.48)">
                    <text x="2364.33px" y="2140.6px" style="font-family:'IBMPlexMono-Light', 'IBM Plex Mono';font-weight:300;font-size:34px;">e</text>
                </g>
                <g transform="matrix(-0.999708,0.0241752,-0.0241752,-0.999708,4739.22,4228.06)">
                    <text x="2344.05px" y="2142.68px" style="font-family:'IBMPlexMono-Light', 'IBM Plex Mono';font-weight:300;font-size:34px;">l</text>
                </g>
                <g transform="matrix(-0.991103,-0.133095,0.133095,-0.991103,4300.86,4571.66)">
                    <text x="2303.22px" y="2142.09px" style="font-family:'IBMPlexMono-Light', 'IBM Plex Mono';font-weight:300;font-size:34px;">f</text>
                </g>
                <g transform="matrix(-0.977727,-0.209882,0.209882,-0.977727,4066.21,4710.3)">
                    <text x="2283.04px" y="2139.39px" style="font-family:'IBMPlexMono-Light', 'IBM Plex Mono';font-weight:300;font-size:34px;">o</text>
                </g>
                <g transform="matrix(-0.957246,-0.289275,0.289275,-0.957246,3811.72,4833.61)">
                    <text x="2263.06px" y="2135.12px" style="font-family:'IBMPlexMono-Light', 'IBM Plex Mono';font-weight:300;font-size:34px;">r</text>
                </g>
                <g transform="matrix(-0.900435,-0.43499,0.43499,-0.900435,3304.52,5000.08)">
                    <text x="2224.49px" y="2121.85px" style="font-family:'IBMPlexMono-Light', 'IBM Plex Mono';font-weight:300;font-size:34px;">e</text>
                </g>
                <g transform="matrix(-0.863197,-0.504868,0.504868,-0.863197,3043.59,5050.62)">
                    <text x="2206.07px" y="2112.95px" style="font-family:'IBMPlexMono-Light', 'IBM Plex Mono';font-weight:300;font-size:34px;">v</text>
                </g>
                <g transform="matrix(-0.82079,-0.57123,0.57123,-0.82079,2783.65,5078.62)">
                    <text x="2188.47px" y="2102.66px" style="font-family:'IBMPlexMono-Light', 'IBM Plex Mono';font-weight:300;font-size:34px;">e</text>
                </g>
                <g transform="matrix(-0.772045,-0.635568,0.635568,-0.772045,2519.39,5085.67)">
                    <text x="2171.72px" y="2091.03px" style="font-family:'IBMPlexMono-Light', 'IBM Plex Mono';font-weight:300;font-size:34px;">r</text>
                </g>
                <g transform="matrix(-0.721562,-0.69235,0.69235,-0.721562,2272.85,5070.21)">
                    <text x="2155.95px" y="2078.08px" style="font-family:'IBMPlexMono-Light', 'IBM Plex Mono';font-weight:300;font-size:34px;">y</text>
                </g>
                <g transform="matrix(-0.665148,-0.746711,0.746711,-0.665148,2024.28,5035.64)">
                    <text x="2141.22px" y="2063.94px" style="font-family:'IBMPlexMono-Light', 'IBM Plex Mono';font-weight:300;font-size:34px;">o</text>
                </g>
                <g transform="matrix(-0.604227,-0.796812,0.796812,-0.604227,1780.79,4981.92)">
                    <text x="2127.64px" y="2048.7px" style="font-family:'IBMPlexMono-Light', 'IBM Plex Mono';font-weight:300;font-size:34px;">n</text>
                </g>
                <g transform="matrix(-0.540028,-0.841647,0.841647,-0.540028,1547.02,4910.32)">
                    <text x="2115.29px" y="2032.43px" style="font-family:'IBMPlexMono-Light', 'IBM Plex Mono';font-weight:300;font-size:34px;">e</text>
                </g>
                <g transform="matrix(-0.400858,-0.91614,0.91614,-0.400858,1104.52,4716.88)">
                    <text x="2094.64px" y="1997.27px" style="font-family:'IBMPlexMono-Light', 'IBM Plex Mono';font-weight:300;font-size:34px;">w</text>
                </g>
                <g transform="matrix(-0.323715,-0.946155,0.946155,-0.323715,889.774,4593.2)">
                    <text x="2086.43px" y="1978.61px" style="font-family:'IBMPlexMono-Light', 'IBM Plex Mono';font-weight:300;font-size:34px;">i</text>
                </g>
                <g transform="matrix(-0.253177,-0.96742,0.96742,-0.253177,710.928,4467.38)">
                    <text x="2079.81px" y="1959.28px" style="font-family:'IBMPlexMono-Light', 'IBM Plex Mono';font-weight:300;font-size:34px;">t</text>
                </g>
                <g transform="matrix(-0.172556,-0.985,0.985,-0.172556,522.249,4317.72)">
                    <text x="2074.66px" y="1939.5px" style="font-family:'IBMPlexMono-Light', 'IBM Plex Mono';font-weight:300;font-size:34px;">h</text>
                </g>
                <g transform="matrix(-0.0913345,-0.99582,0.99582,-0.0913345,348.883,4157.16)">
                    <text x="2071.1px" y="1919.4px" style="font-family:'IBMPlexMono-Light', 'IBM Plex Mono';font-weight:300;font-size:34px;">i</text>
                </g>
                <g transform="matrix(-0.0162509,-0.999868,0.999868,-0.0162509,203.986,3998.88)">
                    <text x="2069.2px" y="1899.09px" style="font-family:'IBMPlexMono-Light', 'IBM Plex Mono';font-weight:300;font-size:34px;">n</text>
                </g>
                <g transform="matrix(0.136804,-0.990598,0.990598,0.136804,-53.934,3654.78)">
                    <text x="2070.13px" y="1858.34px" style="font-family:'IBMPlexMono-Light', 'IBM Plex Mono';font-weight:300;font-size:34px;">t</text>
                </g>
                <g transform="matrix(0.217907,-0.97597,0.97597,0.217907,-172.667,3460.69)">
                    <text x="2072.95px" y="1838.08px" style="font-family:'IBMPlexMono-Light', 'IBM Plex Mono';font-weight:300;font-size:34px;">h</text>
                </g>
                <g transform="matrix(0.294281,-0.955719,0.955719,0.294281,-271.625,3268.53)">
                    <text x="2077.39px" y="1818.19px" style="font-family:'IBMPlexMono-Light', 'IBM Plex Mono';font-weight:300;font-size:34px;">e</text>
                </g>
                <g transform="matrix(0.441488,-0.897267,0.897267,0.441488,-429.083,2870.12)">
                    <text x="2090.93px" y="1779.73px" style="font-family:'IBMPlexMono-Light', 'IBM Plex Mono';font-weight:300;font-size:34px;">s</text>
                </g>
                <g transform="matrix(0.511204,-0.85946,0.85946,0.511204,-487.402,2665.79)">
                    <text x="2099.95px" y="1761.4px" style="font-family:'IBMPlexMono-Light', 'IBM Plex Mono';font-weight:300;font-size:34px;">o</text>
                </g>
                <g transform="matrix(0.577211,-0.816595,0.816595,0.577211,-531.784,2460.61)">
                    <text x="2110.38px" y="1743.86px" style="font-family:'IBMPlexMono-Light', 'IBM Plex Mono';font-weight:300;font-size:34px;">l</text>
                </g>
                <g transform="matrix(0.640307,-0.768119,0.768119,0.640307,-563.328,2251.34)">
                    <text x="2122.18px" y="1727.16px" style="font-family:'IBMPlexMono-Light', 'IBM Plex Mono';font-weight:300;font-size:34px;">a</text>
                </g>
                <g transform="matrix(0.699433,-0.714698,0.714698,0.699433,-581.414,2040.44)">
                    <text x="2135.21px" y="1711.47px" style="font-family:'IBMPlexMono-Light', 'IBM Plex Mono';font-weight:300;font-size:34px;">r</text>
                </g>
                <g transform="matrix(0.800972,-0.598702,0.598702,0.800972,-576.994,1631.13)">
                    <text x="2164.82px" y="1683.4px" style="font-family:'IBMPlexMono-Light', 'IBM Plex Mono';font-weight:300;font-size:34px;">s</text>
                </g>
                <g transform="matrix(0.845585,-0.533842,0.533842,0.845585,-555.353,1422.45)">
                    <text x="2181.15px" y="1671.2px" style="font-family:'IBMPlexMono-Light', 'IBM Plex Mono';font-weight:300;font-size:34px;">y</text>
                </g>
                <g transform="matrix(0.884952,-0.465683,0.465683,0.884952,-520.255,1214.78)">
                    <text x="2198.4px" y="1660.31px" style="font-family:'IBMPlexMono-Light', 'IBM Plex Mono';font-weight:300;font-size:34px;">s</text>
                </g>
                <g transform="matrix(0.918122,-0.396299,0.396299,0.918122,-472.74,1013.55)">
                    <text x="2216.48px" y="1650.83px" style="font-family:'IBMPlexMono-Light', 'IBM Plex Mono';font-weight:300;font-size:34px;">t</text>
                </g>
                <g transform="matrix(0.947522,-0.319692,0.319692,0.947522,-407.876,800.793)">
                    <text x="2235.23px" y="1642.76px" style="font-family:'IBMPlexMono-Light', 'IBM Plex Mono';font-weight:300;font-size:34px;">e</text>
                </g>
                <g transform="matrix(0.969936,-0.243362,0.243362,0.969936,-330.415,597.869)">
                    <text x="2254.57px" y="1636.24px" style="font-family:'IBMPlexMono-Light', 'IBM Plex Mono';font-weight:300;font-size:34px;">m</text>
                </g>
            </g>
            <g>
                <g transform="matrix(-0.276167,-1.00943e-16,2.52356e-16,-0.827014,2334.82,1941.97)">
                    <path d="M426,178.06C426,217.34 330.64,249.18 213,249.18C95.36,249.18 0,217.34 0,178.06C0,144.16 71,115.81 166,108.67L182.69,125.36C107,130.1 49.69,152.28 49.69,178.93C49.69,209.03 122.78,233.44 212.94,233.44C303.1,233.44 376.26,209 376.26,178.93C376.26,152.28 318.98,130.1 243.26,125.36L260,108.67C355,115.81 426,144.16 426,178.06Z" style="fill:none;fill-rule:nonzero;stroke:black;stroke-width:6.49px;"/>
                </g>
                <g transform="matrix(0.24264,0.420264,-1.25853,0.726612,2448.41,1575.11)">
                    <path d="M426,178.06C426,217.34 330.64,249.18 213,249.18C95.36,249.18 0,217.34 0,178.06C0,144.16 71,115.81 166,108.67L182.69,125.36C107,130.1 49.69,152.28 49.69,178.93C49.69,209.03 122.78,233.44 212.94,233.44C303.1,233.44 376.26,209 376.26,178.93C376.26,152.28 318.98,130.1 243.26,125.36L260,108.67C355,115.81 426,144.16 426,178.06Z" style="fill:none;fill-rule:nonzero;stroke:black;stroke-width:3.69px;"/>
                </g>
                <g transform="matrix(0.394645,-0.683545,2.04695,1.18181,1827.47,1729.17)">
                    <path d="M426,178.06C426,217.34 330.64,249.18 213,249.18C95.36,249.18 0,217.34 0,178.06C0,144.16 71,115.81 166,108.67L182.69,125.36C107,130.1 49.69,152.28 49.69,178.93C49.69,209.03 122.78,233.44 212.94,233.44C303.1,233.44 376.26,209 376.26,178.93C376.26,152.28 318.98,130.1 243.26,125.36L260,108.67C355,115.81 426,144.16 426,178.06Z" style="fill:none;fill-rule:nonzero;stroke:black;stroke-width:2.27px;"/>
                </g>
            </g>
            <g transform="matrix(1,0,0,1,1476,780)">
                <path d="M700,800L799.474,920L900,800L800,1000L700,800Z" style="fill:rgb(203,43,0);"/>
            </g>
            <g transform="matrix(-0.5,-0.866025,0.866025,-0.5,1792.65,3002.82)">
                <path d="M700,800L799.474,920L900,800L800,1000L700,800Z" style="fill:rgb(0,70,203);"/>
            </g>
            <g transform="matrix(-0.5,0.866025,-0.866025,-0.5,3559.35,1617.18)">
                <path d="M700,800L799.474,920L900,800L800,1000L700,800Z" style="fill:rgb(203,138,0);"/>
            </g>
        </g>
    </g>
    <defs>
        <radialGradient id="_Radial1" cx="0" cy="0" r="1" gradientUnits="userSpaceOnUse" gradientTransform="matrix(330,0,0,330,1580,1980)"><stop offset="0" style="stop-color:white;stop-opacity:1"/><stop offset="1" style="stop-color:rgb(152,152,152);stop-opacity:1"/></radialGradient>
    </defs>
</svg>
